<?xml version="1.0" encoding="UTF-8"?>
<svg width="700px" height="280px" viewBox="0 0 700 280" version="1.1" xmlns="http://www.w3.org/2000/svg" xmlns:xlink="http://www.w3.org/1999/xlink">
    <!-- Generator: Sketch 46.2 (44496) - http://www.bohemiancoding.com/sketch -->
    <title>diagram</title>
    <desc>Created with Sketch.</desc>
    <defs>
        <polygon id="path-1" points="165.03 180 0.06 180 0.06 0 330 0 330 180"></polygon>
        <polygon id="path-3" points="700 35.02 700 0.04 0.06 0.04 0.06 70 700 70 700 35.02"></polygon>
    </defs>
    <g id="Page-1" stroke="none" stroke-width="1" fill="none" fill-rule="evenodd">
        <g id="diagram">
            <g id="meeting-room-sensor">
                <g id="Group-3" transform="translate(0.000000, 100.000000)">
                    <mask id="mask-2" fill="white">
                        <use xlink:href="#path-1"></use>
                    </mask>
                    <g id="Clip-2"></g>
                    <path d="M2,0 L328,0 C329.105,0 330,0.895 330,2 L330,178 C330,179.105 329.105,180 328,180 L2,180 C0.895,180 0,179.105 0,178 L0,2 C0,0.895 0.895,0 2,0 Z" id="Fill-1" fill="#EBEBEB" mask="url(#mask-2)"></path>
                </g>
                <text id="Meeting-Room" font-family="GTPressuraMono, GT Pressura Mono" font-size="18" font-weight="normal" fill="#666666">
                    <tspan x="106.05" y="254.075967">Meeting Room</tspan>
                </text>
                <path d="M372,100 L698,100 C699.105,100 700,100.895 700,102 L700,278 C700,279.105 699.105,280 698,280 L372,280 C370.895,280 370,279.105 370,278 L370,102 C370,100.895 370.895,100 372,100 Z" id="Fill-4" fill="#EBEBEB"></path>
                <text id="Main-Studio" font-family="GTPressuraMono, GT Pressura Mono" font-size="18" font-weight="normal" fill="#666666">
                    <tspan x="480.55" y="254.075967">Main Studio</tspan>
                </text>
                <path d="M179.413,70 L179.413,119.02" id="Stroke-5" stroke="#000000" stroke-width="2" stroke-linecap="square"></path>
                <polygon id="Fill-6" fill="#000000" points="179.413 126.7 182.293 119.02 176.533 119.02"></polygon>
                <polygon id="Stroke-7" stroke="#000000" stroke-width="2" points="179.413 126.7 182.293 119.02 176.533 119.02"></polygon>
                <path d="M150.738,130 L150.738,80.98" id="Stroke-8" stroke="#000000" stroke-width="2" stroke-linecap="square"></path>
                <polygon id="Fill-9" fill="#000000" points="150.738 73.3 147.858 80.98 153.618 80.98"></polygon>
                <polygon id="Stroke-10" stroke="#000000" stroke-width="2" points="150.738 73.3 147.858 80.98 153.618 80.98"></polygon>
                <g id="Group-13">
                    <mask id="mask-4" fill="white">
                        <use xlink:href="#path-3"></use>
                    </mask>
                    <g id="Clip-12"></g>
                    <path d="M2,0 L698,0 C699.105,0 700,0.895 700,2 L700,68 C700,69.105 699.105,70 698,70 L2,70 C0.895,70 0,69.105 0,68 L0,2 C0,0.895 0.895,0 2,0 Z" id="Fill-11" fill="#007AC3" mask="url(#mask-4)"></path>
                </g>
                <text id="Particle-Cloud" font-family="GTPressuraMono, GT Pressura Mono" font-size="18" font-weight="normal" fill="#FFFFFF">
                    <tspan x="281" y="40">Particle Cloud</tspan>
                </text>
                <path d="M62,130 L268,130 C269.105,130 270,130.895 270,132 L270,218 C270,219.105 269.105,220 268,220 L62,220 C60.895,220 60,219.105 60,218 L60,132 C60,130.895 60.895,130 62,130 Z" id="Fill-14" fill="#666666"></path>
                <text id="Movement-Sensor" font-family="GTPressuraMono, GT Pressura Mono" font-size="18" font-weight="normal" fill="#FFFFFF">
                    <tspan x="91" y="180">Movement Sensor</tspan>
                </text>
                <path d="M432,130 L638,130 C639.105,130 640,130.895 640,132 L640,218 C640,219.105 639.105,220 638,220 L432,220 C430.895,220 430,219.105 430,218 L430,132 C430,130.895 430.895,130 432,130 Z" id="Fill-15" fill="#666666"></path>
                <text id="Status-Display" font-family="GTPressuraMono, GT Pressura Mono" font-size="18" font-weight="normal" fill="#FFFFFF">
                    <tspan x="466" y="180">Status Display</tspan>
                </text>
                <path d="M520.738,130 L520.738,82.9" id="Stroke-16" stroke="#000000" stroke-width="2" stroke-linecap="round" stroke-linejoin="round"></path>
                <polygon id="Fill-17" fill="#000000" points="520.738 73.3 517.138 82.9 524.338 82.9"></polygon>
                <polygon id="Stroke-18" stroke="#000000" stroke-width="2" points="520.738 73.3 517.138 82.9 524.338 82.9"></polygon>
                <path d="M549.539,117.101 L550,70" id="Stroke-19" stroke="#000000" stroke-width="2" stroke-linecap="round" stroke-linejoin="round"></path>
                <polygon id="Fill-20" fill="#000000" points="549.445 126.7 553.139 117.136 545.94 117.065"></polygon>
                <polygon id="Stroke-21" stroke="#000000" stroke-width="2" points="549.445 126.7 553.139 117.136 545.94 117.065"></polygon>
            </g>
        </g>
    </g>
</svg>