<svg width="20" height="20" viewBox="0 0 20 20" xmlns="http://www.w3.org/2000/svg"><path d="M10 20c-.984 0-1.935-.144-2.834-.41.38-.601.795-1.371 1.007-2.143.123-.444.703-2.748.703-2.748.348.663 1.363 1.246 2.443 1.246 3.215 0 5.396-2.931 5.396-6.854 0-2.965-2.512-5.728-6.33-5.728-4.751 0-7.147 3.407-7.147 6.247 0 1.72.65 3.25 2.048 3.82.229.094.434.004.5-.25l.204-.802c.067-.251.041-.339-.144-.558-.402-.476-.659-1.091-.659-1.961 0-2.527 1.889-4.789 4.923-4.789 2.685 0 4.161 1.64 4.161 3.832 0 2.883-1.276 5.317-3.17 5.317-1.047 0-1.829-.866-1.579-1.926.3-1.267.884-2.635.884-3.549 0-.818-.439-1.501-1.349-1.501-1.07 0-1.929 1.107-1.929 2.589 0 .944.319 1.582.319 1.582s-1.094 4.637-1.287 5.45c-.179.76-.202 1.598-.174 2.295-3.523-1.547-5.986-5.064-5.986-9.159 0-5.524 4.477-10 10-10s10 4.476 10 10c0 5.523-4.477 10-10 10z" fill="#313233"/></svg>