<?xml version="1.0" encoding="UTF-8" standalone="no"?>
<svg width="25px" height="25px" viewBox="0 0 25 25" version="1.1" xmlns="http://www.w3.org/2000/svg" xmlns:xlink="http://www.w3.org/1999/xlink">
    <defs></defs>
    <g id="Portfolio" stroke="none" stroke-width="1" fill="none" fill-rule="evenodd">
        <g id="Home-Copy" transform="translate(-150.000000, -651.000000)">
            <g id="Imported-Layers" transform="translate(150.000000, 651.000000)">
                <path d="M23.2136804,12.1583007 C23.2124072,11.6833147 23.59693,11.2997205 24.071854,11.2984628 C24.0379005,10.8188653 23.9763599,10.3463946 23.8885053,9.88105087 L23.8863832,9.88230855 C23.4275872,10.0055618 22.956483,9.73222471 22.8329773,9.27442705 C22.709896,8.81579094 22.9832213,8.34541643 23.4403197,8.22132476 L23.4445639,8.22132476 C23.2875292,7.76939631 23.1037561,7.32752935 22.8970644,6.90117384 L22.8945179,6.90243153 C22.4828323,7.14013415 21.9582514,6.99969257 21.7201528,6.58842929 C21.4824786,6.17716601 21.6238099,5.65187255 22.0354955,5.41333147 C21.7685365,5.01841811 21.4769612,4.64069312 21.1650138,4.2814142 C20.829299,4.61595864 20.2856193,4.61595864 19.9503289,4.2814142 C19.6141897,3.94686976 19.6141897,3.40145333 19.9503289,3.06481274 C19.5895735,2.75416434 19.2114168,2.46280045 18.8167079,2.19533259 L18.8167079,2.19617105 C18.5786093,2.60617663 18.053604,2.74871437 17.6431916,2.51017328 C17.231506,2.27247065 17.0901747,1.74759642 17.3278489,1.33675238 L17.3286977,1.33465623 C16.9025819,1.12713807 16.4616114,0.944354388 16.0087572,0.787562884 L16.0087572,0.789659027 C15.8852515,1.24871437 15.412874,1.52037451 14.9557756,1.39754053 C14.497404,1.275545 14.2249275,0.8039128 14.3467355,0.345276691 L14.3475844,0.343599776 C13.8853929,0.254723309 13.4117422,0.192258245 12.9308764,0.157462269 C12.9308764,0.633286752 12.5455047,1.0177194 12.0727028,1.0177194 C11.59693,1.0177194 11.2124072,0.633286752 11.2124072,0.157462269 C10.7311169,0.192258245 10.2595883,0.254723309 9.79612365,0.343599776 L9.79612365,0.345276691 C9.91878051,0.803074343 9.64757728,1.275545 9.18835679,1.39754053 C8.72913631,1.52037451 8.25888095,1.24871437 8.13579967,0.789659027 L8.13579967,0.786724427 C7.68124779,0.944354388 7.24027729,1.12713807 6.81416142,1.33465623 L6.81501026,1.33591392 C7.05268445,1.74759642 6.91135319,2.27247065 6.50136521,2.51017328 C6.08925515,2.74871437 5.56424984,2.60617663 5.32700007,2.19617105 L5.32615123,2.19533259 C4.93186673,2.46280045 4.55286129,2.75416434 4.19337908,3.06481274 C4.5299427,3.40145333 4.52909387,3.94561207 4.19422791,4.28015651 C3.85766429,4.61595864 3.31356016,4.61595864 2.97826979,4.2814142 L2.97826979,4.28015651 C2.66632242,4.64069312 2.37517154,5.01841811 2.10778807,5.41333147 L2.10863691,5.41333147 C2.51947372,5.65187255 2.66038056,6.17590833 2.42313079,6.58759083 C2.18460777,6.99969257 1.66002688,7.14013415 1.24919007,6.90243153 L1.24706798,6.90117384 C1.03910306,7.32752935 0.857452076,7.76939631 0.69914409,8.22132476 L0.702539436,8.22132476 C1.16091108,8.34457798 1.43296315,8.81579094 1.30988187,9.2735886 C1.18764943,9.73222471 0.715271981,10.0055618 0.257324751,9.88105087 L0.256051496,9.88105087 C0.167348094,10.3451369 0.104958619,10.8176076 0.0718540001,11.2984628 C0.545504704,11.2984628 0.929603169,11.6833147 0.929603169,12.1583007 C0.930876424,12.6316098 0.545504704,13.0173002 0.0718540001,13.0173002 C0.104958619,13.4981554 0.167348094,13.970626 0.256051496,14.4334544 L0.257324751,14.4334544 C0.715271981,14.3110397 1.18764943,14.5831191 1.30988187,15.0400783 C1.43296315,15.4982951 1.16091108,15.9707658 0.702539436,16.0931805 L0.69914409,16.0931805 C0.855329985,16.5463667 1.03910306,16.9878144 1.24706798,17.4145892 L1.24791681,17.4133315 C1.66002688,17.1756288 2.18460777,17.3169089 2.42313079,17.7281722 C2.66038056,18.1394354 2.51947372,18.6638904 2.10863691,18.9011738 L2.10778807,18.9011738 C2.37517154,19.2973449 2.66632242,19.6750699 2.97826979,20.0356065 C3.31356016,19.6998044 3.85766429,19.6998044 4.19337908,20.0356065 C4.52909387,20.3701509 4.52909387,20.9151481 4.19337908,21.2496926 C4.55286129,21.5624371 4.93186673,21.8529625 5.32615123,22.1204304 L5.32615123,22.1191727 C5.56424984,21.7083287 6.08925515,21.5683063 6.50136521,21.804332 C6.91135319,22.0432923 7.05268445,22.5685858 6.81501026,22.9798491 L6.81416142,22.9819452 C7.24027729,23.1886249 7.68124779,23.3714086 8.13495084,23.5294578 L8.13579967,23.526104 C8.25888095,23.0683063 8.72913631,22.7949693 9.18835679,22.9190609 C9.64587961,23.0410565 9.91793167,23.5118502 9.79612365,23.9700671 L9.79442597,23.9713248 C10.2595883,24.0610397 10.7311169,24.123924 11.2124072,24.1574623 C11.2124072,23.6824762 11.59693,23.2980436 12.071854,23.2980436 C12.5455047,23.2980436 12.9308764,23.6824762 12.9308764,24.1566238 L12.9308764,24.1574623 C13.4117422,24.123924 13.8836953,24.0610397 14.3467355,23.9713248 L14.3467355,23.9700671 C14.2249275,23.5118502 14.497404,23.0410565 14.9545024,22.9190609 C15.412874,22.7949693 15.8844026,23.0683063 16.0074839,23.526104 L16.0087572,23.5294578 C16.4616114,23.3714086 16.901733,23.1886249 17.3286977,22.9819452 L17.3278489,22.9798491 C17.0901747,22.5685858 17.231506,22.0432923 17.6419184,21.8055897 C18.0523308,21.5683063 18.5786093,21.7083287 18.8167079,22.1191727 L18.8167079,22.1204304 C19.2114168,21.8529625 19.5895735,21.5624371 19.9503289,21.250531 L19.9503289,21.2496926 C19.6141897,20.9151481 19.6141897,20.3701509 19.9503289,20.0356065 C20.2856193,19.6998044 20.829299,19.6998044 21.1650138,20.0356065 C21.4769612,19.6759083 21.7685365,19.2986026 22.0354955,18.9020123 L22.0354955,18.9011738 C21.6238099,18.6647289 21.4824786,18.1394354 21.7201528,17.7281722 C21.9574026,17.3169089 22.4828323,17.1768865 22.8936691,17.4133315 L22.8970644,17.4154276 C23.1037561,16.9878144 23.2875292,16.5476244 23.4445639,16.0944382 L23.4403197,16.0931805 C22.9832213,15.9707658 22.709896,15.4995528 22.8329773,15.0421744 C22.9556342,14.5831191 23.4275872,14.3110397 23.8863832,14.4334544 L23.8885053,14.4334544 C23.9763599,13.970626 24.0379005,13.4981554 24.071854,13.0173002 C23.59693,13.0173002 23.2124072,12.6316098 23.2136804,12.1583007" id="Fill-1" fill="#FF2841"></path>
                <path d="M14.7626229,14.0933762 C14.2987338,14.0933762 13.9222749,13.7169089 13.9222749,13.2524036 C13.9222749,12.787479 14.2987338,12.4118502 14.7626229,12.4118502 C15.226512,12.4118502 15.6038198,12.787479 15.6038198,13.2524036 C15.6038198,13.7169089 15.226512,14.0933762 14.7626229,14.0933762 L14.7626229,14.0933762 Z M15.9204357,5.19776411 L13.5835892,5.19776411 L11.7250619,19.115735 L13.7508099,19.115735 L14.1871118,15.7333985 L15.3428026,15.7333985 L15.7795289,19.115735 L17.79212,19.115735 L15.9204357,5.19776411 L15.9204357,5.19776411 Z" id="Fill-2" fill="#FFFFFF"></path>
                <path d="M8.7167433,5.11333147 C7.88955224,5.11333147 7.25844239,5.34726104 6.82171606,5.81679709 C6.38583858,6.28633315 6.16726321,6.91014533 6.16726321,7.68949134 L6.16726321,16.7234489 C6.16726321,17.54891 6.36928627,18.1685299 6.77290797,18.5806316 C7.17737851,18.9939911 7.81909882,19.2015092 8.70188866,19.2015092 C9.49045766,19.2015092 10.1003466,18.9923141 10.5319799,18.5747624 C10.9640376,18.1563723 11.1796421,17.5447177 11.1796421,16.7364449 L11.1796421,12.5286473 L8.6165806,12.5286473 L8.6165806,14.2022079 L9.26424277,14.2022079 L9.26424277,16.8362214 C9.26424277,16.995109 9.20524864,17.1250699 9.08556271,17.2231694 C8.9663012,17.3216881 8.81563274,17.3711571 8.63228408,17.3711571 C8.39418547,17.3711571 8.24181934,17.3103689 8.17773219,17.1875349 C8.11449388,17.0663779 8.08181368,16.9393516 8.08181368,16.8077138 L8.08181368,7.68949134 C8.08181368,7.62325321 8.09072646,7.54695361 8.10982528,7.45723868 C8.12765085,7.36752376 8.15990663,7.28577418 8.20659263,7.2098938 C8.25200538,7.13569033 8.31481927,7.07196758 8.39206338,7.01998323 C8.47015633,6.96841811 8.57328995,6.94368362 8.70188866,6.94368362 L8.70188866,6.94577977 C8.71165028,6.94494131 8.71971423,6.94368362 8.72905143,6.94368362 C8.85849897,6.94368362 8.96248143,6.96841811 9.04014996,7.01998323 C9.11781849,7.07196758 9.18020796,7.13569033 9.22646955,7.2098938 C9.27230671,7.28577418 9.30371366,7.36752376 9.32281248,7.45723868 C9.34063804,7.54695361 9.34955082,7.62325321 9.34955082,7.68949134 L9.34955082,9.79192286 L11.2649501,9.79192286 L11.2649501,7.68949134 C11.2649501,6.91014533 11.0467992,6.28633315 10.6104973,5.81679709 C10.1729221,5.34726104 9.54181227,5.11333147 8.7167433,5.11333147" id="Fill-3" fill="#FFFFFF"></path>
            </g>
        </g>
    </g>
</svg>