<svg width="19" height="18" viewBox="0 0 19 18" xmlns="http://www.w3.org/2000/svg"><path d="M.228 17.21h3.858v-11.612h-3.858v11.612zm1.93-13.197c1.346 0 2.182-.891 2.182-2.006-.023-1.139-.837-2.007-2.157-2.007s-2.182.868-2.182 2.007c0 1.115.837 2.006 2.131 2.006h.026zm4.066 13.197s.051-10.522 0-11.611h3.86v1.683h-.026c.508-.792 1.422-1.956 3.504-1.956 2.539 0 4.444 1.659 4.444 5.227v6.657h-3.86v-6.212c0-1.561-.559-2.626-1.956-2.626-1.066 0-1.701.717-1.979 1.412-.104.248-.127.595-.127.942v6.484h-3.86z" fill="#313233"/></svg>