<svg width="20" height="17" viewBox="0 0 20 17" xmlns="http://www.w3.org/2000/svg"><path d="M17.953 4.048l.011.532c0 5.422-4.127 11.674-11.674 11.674-2.317 0-4.474-.679-6.291-1.843.321.037.648.057.979.057 1.922 0 3.692-.656 5.096-1.757-1.796-.033-3.311-1.22-3.833-2.85.25.049.507.075.771.075.374 0 .737-.051 1.081-.144-1.877-.377-3.29-2.035-3.29-4.023v-.052c.553.307 1.186.491 1.858.513-1.101-.736-1.825-1.992-1.825-3.415 0-.752.202-1.457.555-2.063 2.024 2.482 5.047 4.116 8.457 4.287-.069-.301-.106-.614-.106-.936 0-2.266 1.836-4.103 4.103-4.103 1.18 0 2.247.498 2.995 1.297.935-.184 1.813-.525 2.605-.996-.306.958-.957 1.762-1.804 2.27.83-.098 1.621-.319 2.357-.646-.55.823-1.246 1.545-2.047 2.124" fill="#313233"/></svg>