<svg width="20" height="20" viewBox="0 0 20 20" xmlns="http://www.w3.org/2000/svg"><path d="M10 0c-5.523 0-10 4.477-10 10 0 5.524 4.477 10 10 10s10-4.476 10-10c0-5.523-4.477-10-10-10zm6.345 4.607c1.126 1.321 1.841 2.998 1.963 4.838-1.801-.095-3.956-.094-5.689.07-.218-.554-.443-1.095-.685-1.615 1.998-.864 3.536-2 4.411-3.293zm-6.345-2.94c2.021 0 3.874.72 5.317 1.918-.906 1.147-2.324 2.142-4.096 2.894-.97-1.79-2.082-3.332-3.27-4.549.657-.167 1.341-.264 2.049-.264zm-3.771.908c1.204 1.196 2.334 2.725 3.322 4.508-1.882.573-4.039.903-6.338.903-.435 0-.863-.016-1.286-.04.597-2.348 2.188-4.295 4.302-5.371zm-4.549 7.027c.474.021.953.029 1.44.024 2.623-.033 5.07-.441 7.167-1.114.196.412.384.834.563 1.267-.286.066-.54.139-.745.224-2.871 1.203-5.13 3.147-6.355 5.496-1.293-1.469-2.084-3.389-2.084-5.5l.014-.398zm8.319 8.731c-1.926 0-3.695-.658-5.107-1.757 1.109-2.196 3.088-4.013 5.585-5.145.236-.108.548-.197.906-.275.295.825.564 1.679.795 2.562.363 1.382.615 2.743.771 4.069-.918.349-1.91.546-2.95.546zm4.503-1.327c-.157-1.338-.411-2.713-.776-4.109-.178-.677-.381-1.333-.597-1.976 1.634-.134 3.595-.113 5.15 0-.283 2.555-1.718 4.757-3.776 6.085z" fill="#313233"/></svg>