<svg width="16" height="16" viewBox="0 0 16 16" xmlns="http://www.w3.org/2000/svg" xmlns:sketch="http://www.bohemiancoding.com/sketch/ns"><title>instagram</title><desc>Created with Sketch.</desc><path d="M13.664 0h-11.328c-1.289 0-2.336 1.047-2.336 2.336v11.328c0 1.289 1.047 2.336 2.336 2.336h11.328c1.289 0 2.336-1.047 2.336-2.336v-11.328c0-1.289-1.047-2.336-2.336-2.336zm-5.664 5c1.656 0 3 1.344 3 3s-1.344 3-3 3-3-1.344-3-3 1.344-3 3-3zm6.336 9c0 .188-.148.336-.336.336h-12c-.188 0-.336-.148-.336-.336v-7h1.773c-.07.32-.102.656-.102 1 0 2.578 2.086 4.664 4.664 4.664s4.664-2.086 4.664-4.664c0-.344-.031-.68-.102-1h1.773v7zm0-10c0 .188-.148.336-.336.336h-2c-.188 0-.336-.148-.336-.336v-2c0-.188.148-.336.336-.336h2c.188 0 .336.148.336.336v2z" sketch:type="MSShapeGroup" fill="#919699"/></svg>